<?xml version="1.0" encoding="utf-8"?>
<!-- Generator: Adobe Illustrator 22.1.0, SVG Export Plug-In . SVG Version: 6.00 Build 0)  -->
<svg version="1.1" id="Слой_1" xmlns="http://www.w3.org/2000/svg" xmlns:xlink="http://www.w3.org/1999/xlink" x="0px" y="0px"
	 width="33px" height="33px" viewBox="0 0 33 33" enable-background="new 0 0 33 33" xml:space="preserve">
<path fill="#FFFFFF" d="M26.50423,6.46311c-2.56284-2.56284-5.96933-3.97404-9.59379-3.97404h-0.00136
	c-1.79249,0.00027-3.53935,0.3474-5.1918,1.03176c-1.65266,0.6847-3.13326,1.67432-4.40089,2.94228
	c-2.56257,2.5625-3.97377,5.96954-3.97377,9.59379c0,2.1612,0.52165,4.30888,1.5097,6.22247L2.57179,28.7946
	c-0.16093,0.4595-0.047,0.95895,0.29747,1.30342c0.24098,0.24126,0.55819,0.36933,0.88429,0.36933
	c0.13976,0,0.28122-0.0235,0.41912-0.07179l6.51496-2.28053c1.91366,0.98832,4.06154,1.5097,6.22281,1.5097
	c3.62391,0,7.03094-1.41148,9.59379-3.97404c2.56256-2.56257,3.97404-5.9696,3.97404-9.59378
	C30.47828,12.43265,29.06701,9.02561,26.50423,6.46311L26.50423,6.46311z M25.34385,24.49057
	c-2.25253,2.25273-5.24788,3.49317-8.4334,3.49317c-1.94884,0-3.8849-0.4821-5.59897-1.3944
	c-0.31086-0.16516-0.67828-0.19372-1.00806-0.07814l-5.91913,2.07158l2.07186-5.91919
	c0.11551-0.33006,0.08695-0.69741-0.07821-1.00799c-0.91223-1.7138-1.3944-3.64986-1.3944-5.5987
	c0-3.18586,1.24071-6.18087,3.49324-8.43367c2.25253-2.25225,5.24727-3.49296,8.43258-3.49324h0.00109
	c3.18579,0,6.18088,1.24051,8.4334,3.49324c2.25274,2.2528,3.49344,5.24781,3.49344,8.43367
	C28.83729,19.24269,27.59658,22.23777,25.34385,24.49057L25.34385,24.49057z M25.34385,24.49057"/>
<rect x="2.5" y="2.46721" fill="none" width="28" height="28.06557"/>
<path fill="#FFFFFF" d="M21.9528,17.26878c-0.62439-0.62411-1.63989-0.62411-2.26394,0l-0.68286,0.68251
	c-1.69481-0.92343-3.06653-2.29515-3.9905-3.9903l0.68279-0.68251c0.62432-0.62411,0.62432-1.63989,0-2.264l-1.83976-1.83941
	c-0.62411-0.62439-1.63962-0.62439-2.26373,0l-1.47172,1.47152c-0.8429,0.84289-0.88484,2.29194-0.11851,4.08046
	c0.66571,1.55287,1.88374,3.25977,3.42971,4.80594c1.54597,1.54597,3.2528,2.764,4.80574,3.42944
	c0.84979,0.36421,1.62275,0.54597,2.29064,0.54597c0.73798,0,1.34741-0.22172,1.7901-0.66441l1.47152-1.47179v0.00027
	c0.30253-0.3026,0.46906-0.70437,0.46906-1.13183c0-0.42801-0.16653-0.82985-0.46906-1.1321L21.9528,17.26878z M21.16038,21.68361
	c-0.24071,0.24064-0.98033,0.325-2.27391-0.22923c-1.36557-0.58511-2.88989-1.67985-4.2918-3.08176
	c-1.40212-1.40212-2.49631-2.92623-3.08176-4.2918c-0.55417-1.29324-0.46988-2.0334-0.22944-2.27384l1.44351-1.44351
	l1.78258,1.78292l-0.85437,0.85485c-0.38634,0.38641-0.47971,0.97234-0.23183,1.45792
	c1.12357,2.20287,2.88163,3.9612,5.08449,5.08456c0.4862,0.24788,1.07213,0.15471,1.45847-0.23163l0.85437-0.85464l1.78313,1.7832
	L21.16038,21.68361z M21.16038,21.68361"/>
</svg>
