<?xml version="1.0" encoding="utf-8"?>
<!-- Generator: Adobe Illustrator 22.1.0, SVG Export Plug-In . SVG Version: 6.00 Build 0)  -->
<svg version="1.1" id="Слой_1" xmlns="http://www.w3.org/2000/svg" xmlns:xlink="http://www.w3.org/1999/xlink" x="0px" y="0px"
	 width="33px" height="33px" viewBox="0 0 33 33" enable-background="new 0 0 33 33" xml:space="preserve">
<g>
	<path fill="#FFFFFF" d="M27.5546,3.36114H10.77193c-1.99362,0-3.69726,1.44991-3.69726,3.44353v8.15572H3.99362
		C2.79745,14.96039,2,16.04782,2,17.24399v6.74207c0,1.19617,0.79745,2.21111,1.99362,2.21111h1.63114l0.65246,2.89981
		c0.06308,0.25717,0.25526,0.46307,0.50747,0.54372h0.21749c0.19122-0.00273,0.37362-0.08089,0.50747-0.21749l2.97231-3.22604
		h4.49471c1.21933-0.01875,2.20878-0.99224,2.24735-2.21111v-3.58852h0.54371l4.96593,5.4009
		c0.11784,0.16205,0.30712,0.25669,0.50747,0.25373h0.21749c0.24689-0.06769,0.43978-0.26058,0.50747-0.50747l1.15993-5.14717
		h2.42859c1.99362,0,3.44353-1.70364,3.44353-3.69726V6.80467c0.06107-1.84074-1.38164-3.38246-3.22238-3.44353
		C27.70206,3.35869,27.6283,3.35869,27.5546,3.36114z M15.77411,23.98606c-0.03618,0.41836-0.37786,0.74451-0.79745,0.7612h-4.82094
		c-0.19122,0.00272-0.37362,0.08089-0.50747,0.21749l-2.2836,2.46484l-0.47122-2.13861
		c-0.08465-0.32855-0.38584-0.55445-0.72495-0.54371H3.99362c-0.39872,0-0.54372-0.36248-0.54372-0.7612v-6.74207
		c0-0.39872,0.14499-0.8337,0.54372-0.8337h3.08105v0.28998c0.0386,2.02574,1.67152,3.65867,3.69726,3.69726h5.00218V23.98606z
		 M29.54822,16.70028c0,1.19617-0.79745,2.24735-1.99362,2.24735h-3.00856c-0.33536-0.02324-0.63348,0.21212-0.68871,0.54371
		l-0.97869,4.31347l-4.27722-4.6397c-0.13385-0.13659-0.31625-0.21476-0.50747-0.21749h-7.32203
		c-1.22521-0.03773-2.20963-1.02214-2.24736-2.24735V6.80467c0-1.19617,1.05118-1.99362,2.24736-1.99362H27.5546
		c1.03915-0.0619,1.93172,0.73032,1.99362,1.76946c0.00445,0.07465,0.00445,0.1495,0,0.22416V16.70028z"/>
	<path fill="#FFFFFF" d="M11.75062,10.24819h8.69944c0.40038,0,0.72495-0.32457,0.72495-0.72495s-0.32457-0.72495-0.72495-0.72495
		h-8.69944c-0.40038,0-0.72495,0.32457-0.72495,0.72495S11.35024,10.24819,11.75062,10.24819z"/>
	<path fill="#FFFFFF" d="M26.24969,13.14801H11.75062c-0.40038,0-0.72495,0.32457-0.72495,0.72495s0.32457,0.72495,0.72495,0.72495
		h14.49907c0.40038,0,0.72495-0.32457,0.72495-0.72495S26.65007,13.14801,26.24969,13.14801z"/>
</g>
</svg>
