<?xml version="1.0" encoding="utf-8"?>
<!-- Generator: Adobe Illustrator 22.1.0, SVG Export Plug-In . SVG Version: 6.00 Build 0)  -->
<svg version="1.1" id="Слой_1" xmlns="http://www.w3.org/2000/svg" xmlns:xlink="http://www.w3.org/1999/xlink" x="0px" y="0px"
	 width="33px" height="33px" viewBox="0 0 33 33" enable-background="new 0 0 33 33" xml:space="preserve">
<g>
	<path fill="#FFFFFF" d="M19.13672,9.46875c0,0.48555-0.39336,0.87891-0.87891,0.87891c-0.48555,0-0.87891-0.39336-0.87891-0.87891
		s0.39336-0.87891,0.87891-0.87891C18.74336,8.58984,19.13672,8.9832,19.13672,9.46875L19.13672,9.46875z M19.13672,9.46875"/>
	<path fill="#FFFFFF" d="M22.65234,9.46875c0,0.48555-0.39336,0.87891-0.87891,0.87891c-0.48555,0-0.87891-0.39336-0.87891-0.87891
		s0.39336-0.87891,0.87891-0.87891C22.25898,8.58984,22.65234,8.9832,22.65234,9.46875L22.65234,9.46875z M22.65234,9.46875"/>
	<path fill="#FFFFFF" d="M26.16797,9.46875c0,0.48555-0.39336,0.87891-0.87891,0.87891c-0.48555,0-0.87891-0.39336-0.87891-0.87891
		s0.39336-0.87891,0.87891-0.87891C25.77461,8.58984,26.16797,8.9832,26.16797,9.46875L26.16797,9.46875z M26.16797,9.46875"/>
	<path fill="#FFFFFF" d="M21.25859,29.68359c1.44688,0,2.62422-1.18289,2.62422-2.63672v-3.51563
		c0-0.37812-0.24172-0.71383-0.60032-0.83375l-5.26086-1.75781c-0.25758-0.08578-0.54023-0.0482-0.76633,0.10258l-2.23726,1.49133
		c-2.40078-1.13922-5.23891-3.95195-6.3675-6.31039l1.49078-2.23633c0.15078-0.22586,0.18836-0.50875,0.10258-0.76633
		L8.48609,7.95969C8.36617,7.60109,8.03047,7.35938,7.65234,7.35938H4.13672C2.68289,7.35938,1.5,8.53641,1.5,9.98359
		c0,4.85594,2.20797,9.84008,6.05805,13.67398C11.40391,27.48726,16.3975,29.68359,21.25859,29.68359L21.25859,29.68359z
		 M4.13672,9.11719h2.88266l1.42094,4.25266l-1.51914,2.27844c-0.16055,0.24109-0.19227,0.54531-0.08484,0.81422
		c0.58438,1.46086,1.75414,3.10422,3.29344,4.62734c1.52922,1.51274,3.18055,2.66969,4.64992,3.25742
		c0.26891,0.10742,0.57344,0.0757,0.81422-0.08484l2.27875-1.51914l4.25234,1.42094v2.88266
		c0,0.49289-0.38055,0.87891-0.86641,0.87891c-9.25258,0-18.00078-8.71945-18.00078-17.94219
		C3.25781,9.49773,3.64383,9.11719,4.13672,9.11719L4.13672,9.11719z M4.13672,9.11719"/>
	<path fill="#FFFFFF" d="M17.92149,19.06992c0.32836,0.13609,0.70648,0.0607,0.95797-0.19047l3.25805-3.25836h3.15156
		c3.42468,0,6.21094-2.76,6.21094-6.15234s-2.78625-6.15234-6.21094-6.15234h-7.03125c-3.39234,0-6.15234,2.76-6.15234,6.15234
		c0,3.09414,2.29586,5.66195,5.27344,6.08977v2.6993C17.3789,18.61336,17.59312,18.93375,17.92149,19.06992L17.92149,19.06992z
		 M13.86328,9.46875c0-2.42312,1.97141-4.39453,4.39453-4.39453h7.03125c2.45547,0,4.45313,1.97141,4.45313,4.39453
		s-1.99766,4.39453-4.45313,4.39453h-3.51563c-0.23313,0-0.45656,0.0925-0.62133,0.25727l-2.01539,2.01539v-1.39375
		c0-0.48555-0.39336-0.87891-0.87891-0.87891C15.83469,13.86328,13.86328,11.89188,13.86328,9.46875L13.86328,9.46875z
		 M13.86328,9.46875"/>
</g>
</svg>
